<svg xmlns="http://www.w3.org/2000/svg"  viewBox="0 0 100 100" width="100px" height="100px"><path fill="#8889b9" d="M13,27c-1.105,0-2,0.895-2,2s0.895,2,2,2s2-0.895,2-2S14.105,27,13,27z"/><circle cx="77" cy="13" r="1" fill="#f1bc19"/><circle cx="50" cy="50" r="37" fill="#e4e4f9"/><circle cx="83" cy="15" r="4" fill="#f1bc19"/><circle cx="87" cy="24" r="2" fill="#8889b9"/><circle cx="81" cy="76" r="2" fill="#fbcd59"/><circle cx="15" cy="63" r="4" fill="#fbcd59"/><circle cx="25" cy="87" r="2" fill="#8889b9"/><circle cx="18.375" cy="54.5" r="2.5" fill="#fff"/><circle cx="77.5" cy="30.5" r="1.5" fill="#fff"/><polygon fill="#a1a1ca" points="46.313,38.712 40.394,52.511 34.708,38.701 24.708,38.701 35.389,64.18 31.476,73.304 41.313,73.304 56.313,38.712"/><polygon fill="#a1a1ca" points="75.306,26.709 65.386,49.294 55.702,49.294 65.461,26.709"/><polygon fill="none" stroke="#472b29" stroke-linejoin="round" stroke-miterlimit="10" stroke-width="1.4" points="46.313,38.712 40.394,52.511 34.708,38.701 24.708,38.701 35.389,64.18 31.476,73.304 41.313,73.304 56.313,38.712"/><polyline fill="none" stroke="#472b29" stroke-linecap="round" stroke-linejoin="round" stroke-miterlimit="10" stroke-width=".5" points="45.768,58.003 40,71.304 34.51,71.304"/><line x1="48.17" x2="47.024" y1="52.463" y2="55.105" fill="none" stroke="#472b29" stroke-linecap="round" stroke-linejoin="round" stroke-miterlimit="10" stroke-width=".5"/><line x1="28.692" x2="27.715" y1="43.031" y2="40.701" fill="none" stroke="#472b29" stroke-linecap="round" stroke-linejoin="round" stroke-miterlimit="10" stroke-width=".5"/><line x1="33.065" x2="29.956" y1="53.462" y2="46.047" fill="none" stroke="#472b29" stroke-linecap="round" stroke-linejoin="round" stroke-miterlimit="10" stroke-width=".5"/><polygon fill="none" stroke="#472b29" stroke-linejoin="round" stroke-miterlimit="10" stroke-width="1.4" points="75.306,26.709 65.386,49.294 55.702,49.294 65.461,26.709"/><polyline fill="none" stroke="#472b29" stroke-linecap="round" stroke-linejoin="round" stroke-miterlimit="10" stroke-width=".5" points="67.714,39.02 64.08,47.294 58.745,47.294"/><line x1="69.969" x2="68.585" y1="33.886" y2="37.038" fill="none" stroke="#472b29" stroke-linecap="round" stroke-linejoin="round" stroke-miterlimit="10" stroke-width=".5"/><circle cx="57.5" cy="58.5" r="5.814" fill="#a1a1ca"/><circle cx="57.5" cy="58.5" r="5.814" fill="none" stroke="#472b29" stroke-linejoin="round" stroke-miterlimit="10" stroke-width="1.4"/></svg>